<svg xmlns="http://www.w3.org/2000/svg" xmlns:xlink="http://www.w3.org/1999/xlink"><defs><clipPath id="a"><path d="M0 0h24v24H0z"/></clipPath></defs><symbol id="email" viewBox="0 0 18 18"><path d="M9 11c-.3 0-.5-.1-1-.3L1 7v7c0 .5.5 1 1 1h14c.5 0 1-.5 1-1V7l-7 3.7c-.5.2-.7.3-1 .3Zm7-8H2c-.5 0-1 .5-1 1v.8L9 9l8-4.2V4c0-.5-.5-1-1-1Z"/></symbol><symbol id="htmlacademy" viewBox="0 0 32 32"><path d="M16.134 2h-.09L4 3.19v21.007L16.045 31 28 24.197V3.19L16.134 2Zm10.17 10.29-10.26-5.783v-.085h-.089l-.089-.085v.085L5.696 12.29V4.636l10.26-1.02 10.349 1.02v7.654ZM15.956 7.783l10.26 5.698-4.014 2.211-6.335-3.572v1.19l5.264 2.977-.803.426-4.46-2.552v1.19l3.39 1.957-.714.425-2.677-1.53v1.19l1.695.935-1.606.936-10.17-5.698 10.17-5.783Zm-10.26 7.059 10.171 5.783v.85l-7.048-3.997v1.19l7.137 4.083v.935L8.818 19.69v1.19l7.137 4.083 7.227-4.167v-4.423l3.034-1.7v8.504l-10.26 5.868-10.26-5.783v-8.42Z"/></symbol><symbol id="like" viewBox="0 0 22 20"><path d="m12.4 3.6-.6 2.9-.6 2.5h8.7v2.1L17 18H8V8l4.4-4.4ZM2 10v8-8ZM13.2 0 6.6 6.6c-.4.3-.6.8-.6 1.4v10c0 1.1.9 2 2 2h9c.8 0 1.5-.5 1.8-1.2l3-7.1c.1-.2.1-.5.1-.7V9h.1c0-1.1-.9-2-2-2h-6.3l1-4.6v-.3c0-.4-.2-.8-.4-1.1l-1.1-1ZM4 8H0v12h4V8Z"/></symbol><symbol id="phone" viewBox="0 0 18 18"><path d="M3.6 7.8c1.4 2.8 3.8 5.1 6.6 6.6l2.2-2.2c.3-.3.7-.4 1-.2 1.1.4 2.3.6 3.6.6.6 0 1 .4 1 1V17c0 .6-.4 1-1 1C7.6 18 0 10.4 0 1c0-.6.4-1 1-1h3.5c.6 0 1 .4 1 1 0 1.2.2 2.4.6 3.6.1.3 0 .7-.2 1L3.6 7.8Z"/></symbol><symbol id="telegram" viewBox="0 0 24 24"><path d="m22.44 4.622-3.17 14.944c-.239 1.055-.862 1.317-1.748.82l-4.828-3.558-2.33 2.242c-.258.258-.473.473-.97.473l.347-4.917 8.948-8.086c.39-.346-.084-.54-.604-.192L7.022 13.314 2.26 11.823c-1.036-.323-1.055-1.036.216-1.533l18.627-7.177c.863-.323 1.617.192 1.336 1.51Z"/></symbol><symbol id="vk" viewBox="0 0 24 24"><g clip-path="url(#a)"><path fill-rule="evenodd" clip-rule="evenodd" d="M23.45 5.948c.166-.546 0-.948-.795-.948H20.03c-.668 0-.976.347-1.143.73 0 0-1.335 3.196-3.226 5.272-.612.602-.89.793-1.224.793-.167 0-.418-.191-.418-.738V5.948c0-.656-.184-.948-.74-.948H9.151c-.417 0-.668.304-.668.593 0 .621.946.765 1.043 2.513v3.798c0 .833-.153.984-.487.984-.89 0-3.055-3.211-4.34-6.885C4.45 5.288 4.198 5 3.527 5H.9c-.75 0-.9.347-.9.73 0 .682.89 4.07 4.145 8.551C6.315 17.341 9.37 19 12.153 19c1.669 0 1.875-.368 1.875-1.003v-2.313c0-.737.158-.884.687-.884.39 0 1.057.192 2.615 1.667C19.11 18.216 19.403 19 20.405 19h2.625c.75 0 1.126-.368.91-1.096-.238-.724-1.088-1.775-2.215-3.022-.612-.71-1.53-1.475-1.809-1.858-.389-.491-.278-.71 0-1.147 0 0 3.2-4.426 3.533-5.929h.001Z"/></g></symbol><symbol id="youtube" viewBox="0 0 24 24"><path d="M19.181 5H4.813C3.306 5 2 6.3 2 7.8v8.3C2 17.7 3.306 19 4.813 19h14.368c1.608 0 2.814-1.3 2.814-2.8V7.8c.1-1.5-1.206-2.8-2.814-2.8ZM9.033 15.4V8.6l6.833 3.4-6.833 3.4Z"/></symbol></svg>